<?xml version="1.0" encoding="UTF-8" standalone="no"?>
<!-- Created with Inkscape (http://www.inkscape.org/) -->

<svg
   xmlns:dc="http://purl.org/dc/elements/1.1/"
   xmlns:cc="http://creativecommons.org/ns#"
   xmlns:rdf="http://www.w3.org/1999/02/22-rdf-syntax-ns#"
   xmlns:svg="http://www.w3.org/2000/svg"
   xmlns="http://www.w3.org/2000/svg"
   xmlns:sodipodi="http://sodipodi.sourceforge.net/DTD/sodipodi-0.dtd"
   xmlns:inkscape="http://www.inkscape.org/namespaces/inkscape"
   width="10in"
   height="3in"
   viewBox="0 0 900.00002 269.99999"
   id="svg2"
   version="1.1"
   inkscape:version="0.91 r13725"
   sodipodi:docname="logo.svg">
  <defs
     id="defs4" />
  <sodipodi:namedview
     id="base"
     pagecolor="#ffffff"
     bordercolor="#666666"
     borderopacity="1.0"
     inkscape:pageopacity="0.0"
     inkscape:pageshadow="2"
     inkscape:zoom="0.7"
     inkscape:cx="442.27521"
     inkscape:cy="22.079927"
     inkscape:document-units="px"
     inkscape:current-layer="layer1"
     showgrid="false"
     units="in"
     inkscape:window-width="1600"
     inkscape:window-height="845"
     inkscape:window-x="0"
     inkscape:window-y="27"
     inkscape:window-maximized="1" />
  <metadata
     id="metadata7">
    <rdf:RDF>
      <cc:Work
         rdf:about="">
        <dc:format>image/svg+xml</dc:format>
        <dc:type
           rdf:resource="http://purl.org/dc/dcmitype/StillImage" />
        <dc:title></dc:title>
      </cc:Work>
    </rdf:RDF>
  </metadata>
  <g
     inkscape:label="Layer 1"
     inkscape:groupmode="layer"
     id="layer1"
     transform="translate(0,-782.36222)">
    <g
       id="g4325"
       transform="translate(25.235644,0.36044139)">
      <g
         transform="matrix(0.84130051,0,0,0.84130051,134.07802,203.60677)"
         id="text4136"
         style="font-style:normal;font-weight:normal;font-size:100.19812775px;line-height:125%;font-family:Sans;letter-spacing:0px;word-spacing:0px;fill:#000000;fill-opacity:1;stroke:none;stroke-width:1px;stroke-linecap:butt;stroke-linejoin:miter;stroke-opacity:1">
        <path
           inkscape:connector-curvature="0"
           id="path4143"
           style="font-style:normal;font-variant:normal;font-weight:normal;font-stretch:normal;font-family:Track;-inkscape-font-specification:Track"
           d="m 113.59629,878.87303 c -17.935469,0 -32.564396,14.72912 -32.564396,32.66459 l 0,17.43447 c 0,17.93547 14.628927,32.4642 32.564396,32.4642 13.62694,0 26.6527,-9.71922 31.16161,-22.54458 0.70139,-1.90377 1.30258,-4.20832 1.30258,-6.21229 0,-1.60317 -1.30258,-3.20634 -3.20634,-3.20634 l -6.71328,0 c -1.80356,0 -2.80554,0.90179 -3.10614,2.70535 l 0.1002,-0.20039 c -0.80158,3.30653 -1.60317,5.91169 -3.60713,8.61704 -3.90773,5.1101 -9.51882,8.01585 -15.9315,8.01585 -10.7212,0 -19.538639,-8.81744 -19.538639,-19.63884 l 0,-17.43447 c 0,-10.8214 8.817439,-19.63883 19.538639,-19.63883 6.41268,0 12.12397,2.90574 15.7311,7.81545 1.70337,2.30456 2.40476,4.70931 3.50694,7.81545 0.70138,1.30258 1.40277,2.20436 3.10614,2.20436 l 6.71327,0 c 1.90377,0 2.70535,-1.60317 3.10614,-2.90574 0,-0.1002 0.1002,-0.90179 0.1002,-1.00199 -3.20634,-15.6309 -15.9315,-26.95329 -32.26379,-26.95329 z" />
        <path
           inkscape:connector-curvature="0"
           id="path4145"
           style="font-style:normal;font-variant:normal;font-weight:normal;font-stretch:normal;font-family:Track;-inkscape-font-specification:Track"
           d="m 225.8041,912.23901 c 0,-18.43646 -15.53071,-33.16559 -34.86895,-33.16559 -19.23804,0 -35.16954,14.72913 -35.16954,33.16559 l 0,15.7311 c 0,18.43646 15.8313,33.26578 35.06934,33.26578 19.23804,0 34.96915,-14.82932 34.96915,-33.26578 l 0,-15.7311 z m -13.52675,15.7311 c 0,11.22219 -9.71922,20.44042 -21.4424,20.44042 -11.82338,0 -21.54259,-9.21823 -21.54259,-20.44042 l 0,-15.7311 c 0,-11.122 9.71921,-20.44042 21.54259,-20.44042 11.72318,0 21.4424,9.21822 21.4424,20.44042 l 0,15.7311 z" />
        <path
           inkscape:connector-curvature="0"
           id="path4147"
           style="font-style:normal;font-variant:normal;font-weight:normal;font-stretch:normal;font-family:Track;-inkscape-font-specification:Track"
           d="m 297.83872,883.38194 c 0,-1.60317 -1.40277,-3.20634 -3.30654,-3.20634 l -6.81347,0 c -1.90376,0 -3.30654,1.60317 -3.30654,3.20634 l 0,49.99887 -34.36795,-51.70223 0,0.10019 c -0.60119,-1.10218 -1.50298,-1.60317 -2.70535,-1.60317 l -7.41467,0 c -1.90376,0 -3.20634,1.60317 -3.20634,3.20634 l 0.2004,73.74583 c 0,1.60317 1.10218,3.20634 3.00594,3.20634 l 6.91368,0 c 1.90376,0 3.30653,-1.60317 3.30653,-3.20634 l 0,-49.89867 c 12.32437,18.23606 22.74498,33.66657 34.76875,51.60203 0.60119,1.00199 1.50298,1.50298 2.80555,1.50298 l 6.81347,0 c 1.90377,0 3.30654,-1.60317 3.30654,-3.20634 l 0,-73.74583 z" />
        <path
           inkscape:connector-curvature="0"
           id="path4149"
           style="font-style:normal;font-variant:normal;font-weight:normal;font-stretch:normal;font-family:Track;-inkscape-font-specification:Track"
           d="m 366.21611,883.38194 c 0,-1.60317 -1.30257,-3.20634 -3.20634,-3.20634 l -6.81347,0 c -3.60713,0 -3.60713,3.60714 -3.30654,6.01189 l 0,47.79451 c 0,7.11407 -5.71129,13.02576 -12.82536,13.02576 l -7.81545,0 c -4.40872,0 -8.71724,-3.00595 -10.42061,-7.11407 -0.90178,-2.10416 -0.90178,-3.80753 -0.90178,-6.11209 l 0,-1.10218 c 0,-1.90376 -1.40277,-3.40673 -3.30654,-3.40673 l -6.81347,0 c -1.90376,0 -3.10614,1.50297 -3.10614,3.40673 l 0,1.10218 c 0,2.30456 0.1002,4.20832 0.50099,6.51288 1.90376,11.52279 12.32437,20.03963 24.04755,20.03963 l 7.81545,0 c 14.42853,0 26.15171,-11.92358 26.15171,-26.35211 l 0,-50.60006 z" />
        <path
           inkscape:connector-curvature="0"
           id="path4151"
           style="font-style:normal;font-variant:normal;font-weight:normal;font-stretch:normal;font-family:Track;-inkscape-font-specification:Track"
           d="m 436.31878,883.38194 c 0,-2.10416 -1.10218,-3.20634 -3.30653,-3.20634 l -6.61308,0 c -3.10614,0 -3.30654,1.90377 -3.30654,3.90773 l 0,50.80045 c 0,6.81347 -5.71129,12.32437 -12.62496,12.32437 l -7.71526,0 c -6.01189,0 -11.22219,-4.90971 -11.22219,-11.02179 l 0,-52.10303 c 0,-2.00396 -0.1002,-3.90773 -3.20634,-3.90773 l -6.71327,0 c -2.10416,0 -3.20634,1.10218 -3.20634,3.20634 l 0,52.80442 c 0,13.62694 11.12199,24.14775 24.34814,24.14775 l 7.71526,0 c 14.02773,0 25.85111,-11.42259 25.85111,-25.45033 l 0,-51.50184 z" />
        <path
           inkscape:connector-curvature="0"
           id="path4153"
           style="font-style:normal;font-variant:normal;font-weight:normal;font-stretch:normal;font-family:Track;-inkscape-font-specification:Track"
           d="m 486.53998,893.50196 c 2.30456,0 3.90773,1.70336 3.90773,3.80752 0,0.80159 -0.2004,1.50298 -0.60119,2.10416 l 0,-0.10019 c -2.10416,3.30653 -19.93943,12.12397 -27.85508,16.0317 l 0,-21.84319 24.54854,0 z M 451.67103,880.1756 c -1.90376,0 -3.30654,1.60317 -3.30654,3.20634 l 0.2004,73.74583 c 0,1.60317 1.20238,3.20634 3.10614,3.20634 l 7.11407,0 c 3.10614,0 3.20634,-1.90377 3.20634,-3.90773 l 0,-26.05151 c 7.21426,-3.70733 13.32635,-7.11407 20.24002,-10.7212 l 14.42853,38.17548 c 0.50099,1.30258 1.10218,2.50496 3.20634,2.50496 l 7.61506,0 c 2.70535,0 4.20832,-1.40278 3.10614,-4.10813 -3.50693,-8.91763 -6.81347,-17.83526 -10.01981,-26.6527 -2.00397,-5.61109 -4.00793,-10.8214 -6.11209,-16.43249 5.71129,-3.90773 9.81942,-8.31645 9.81942,-15.9315 0,-9.11803 -7.91565,-17.03369 -16.93349,-17.03369 l -35.67053,0 z" />
        <path
           inkscape:connector-curvature="0"
           id="path4155"
           style="font-style:normal;font-variant:normal;font-weight:normal;font-stretch:normal;font-family:Track;-inkscape-font-specification:Track"
           d="m 580.24716,957.12777 c 0,-0.4008 0,-0.50099 -0.1002,-1.20238 l -25.65072,-73.14463 c -0.70138,-1.30258 -1.10218,-2.60516 -3.10614,-2.60516 l -8.81743,0 c -2.00397,0 -2.50496,1.10218 -3.20634,2.60516 -2.60516,6.31248 -25.55053,73.94621 -25.55053,74.34701 0,1.90376 1.70337,3.20634 3.30654,3.20634 l 6.91367,0 c 2.40476,0 2.60515,-1.00198 3.30654,-2.60515 l 5.5109,-15.43052 24.64874,-10.92159 9.11803,26.35211 c 0.70138,1.50297 1.10218,2.60515 3.20634,2.60515 l 7.21426,0 c 2.10416,0 3.20634,-1.10218 3.20634,-3.20634 z m -41.38182,-32.96519 8.11604,-22.74497 c 1.10218,3.10614 1.70337,5.2103 2.40476,7.21426 0.30059,1.10218 0.70139,2.00397 1.00198,3.10614 0.30059,1.10218 1.10218,3.10615 2.30456,6.31249 l -13.82734,6.11208 z" />
        <path
           inkscape:connector-curvature="0"
           id="path4157"
           style="font-style:normal;font-variant:normal;font-weight:normal;font-stretch:normal;font-family:Track;-inkscape-font-specification:Track"
           d="m 639.71005,893.10116 c 3.50694,0 3.90773,-0.70138 3.90773,-3.90772 l 0,-5.11011 c 0,-2.00396 -0.2004,-3.90773 -3.30654,-3.90773 l -53.4056,0 c -3.10614,0 -3.20634,1.90377 -3.20634,3.90773 l 0,5.11011 c 0,3.20634 0.50099,3.90772 4.00792,3.90772 l 19.43844,0 0,63.32522 c 0,2.00396 0.1002,3.90773 3.20634,3.90773 l 6.91367,0 c 3.10614,0 3.20634,-1.90377 3.20634,-3.90773 l 0,-63.32522 19.23804,0 z" />
        <path
           inkscape:connector-curvature="0"
           id="path4159"
           style="font-style:normal;font-variant:normal;font-weight:normal;font-stretch:normal;font-family:Track;-inkscape-font-specification:Track"
           d="m 720.53233,912.23901 c 0,-18.43646 -15.53071,-33.16559 -34.86895,-33.16559 -19.23804,0 -35.16954,14.72913 -35.16954,33.16559 l 0,15.7311 c 0,18.43646 15.83131,33.26578 35.06935,33.26578 19.23804,0 34.96914,-14.82932 34.96914,-33.26578 l 0,-15.7311 z m -13.52674,15.7311 c 0,11.22219 -9.71922,20.44042 -21.4424,20.44042 -11.82338,0 -21.5426,-9.21823 -21.5426,-20.44042 l 0,-15.7311 c 0,-11.122 9.71922,-20.44042 21.5426,-20.44042 11.72318,0 21.4424,9.21822 21.4424,20.44042 l 0,15.7311 z" />
        <path
           inkscape:connector-curvature="0"
           id="path4161"
           style="font-style:normal;font-variant:normal;font-weight:normal;font-stretch:normal;font-family:Track;-inkscape-font-specification:Track"
           d="m 769.52142,893.50196 c 2.30456,0 3.90773,1.70336 3.90773,3.80752 0,0.80159 -0.20039,1.50298 -0.60119,2.10416 l 0,-0.10019 c -2.10416,3.30653 -19.93942,12.12397 -27.85508,16.0317 l 0,-21.84319 24.54854,0 z M 734.65248,880.1756 c -1.90377,0 -3.30654,1.60317 -3.30654,3.20634 l 0.20039,73.74583 c 0,1.60317 1.20238,3.20634 3.10615,3.20634 l 7.11406,0 c 3.10615,0 3.20634,-1.90377 3.20634,-3.90773 l 0,-26.05151 c 7.21427,-3.70733 13.32635,-7.11407 20.24003,-10.7212 l 14.42853,38.17548 c 0.50099,1.30258 1.10218,2.50496 3.20634,2.50496 l 7.61505,0 c 2.70535,0 4.20832,-1.40278 3.10615,-4.10813 -3.50694,-8.91763 -6.81348,-17.83526 -10.01982,-26.6527 -2.00396,-5.61109 -4.00792,-10.8214 -6.11208,-16.43249 5.71129,-3.90773 9.81941,-8.31645 9.81941,-15.9315 0,-9.11803 -7.91565,-17.03369 -16.93348,-17.03369 l -35.67053,0 z" />
      </g>
      <g
         transform="translate(-386.31868,675.96129)"
         id="g4275">
        <g
           id="g4255"
           transform="matrix(1.640081,0,0,1.640081,401.03785,104.16476)">
          <g
             id="g4257">
            <g
               id="g4259">
              <path
                 inkscape:connector-curvature="0"
                 d="m 95.984,141.45 c -2.521,0 -4.975,-0.499 -7.351,-1.497 C 73.903,133.764 66.497,109.81 58.656,84.45 52.244,63.707 44.975,40.195 35.17,36.481 c -0.98,-0.371 -3.961,-1.5 -9.455,1.843 l -5.719,-9.396 c 6.691,-4.072 13.106,-4.993 19.07,-2.733 14.829,5.618 22.246,29.608 30.099,55.007 6.436,20.816 13.73,44.41 23.729,48.611 1.634,0.686 4.33,1.33 8.866,-1.006 l 5.035,9.78 c -3.707,1.908 -7.322,2.863 -10.811,2.863 z"
                 id="path4261" />
            </g>
          </g>
          <g
             id="g4263">
            <g
               id="g4265">
              <rect
                 x="37.638"
                 y="66.651001"
                 transform="matrix(0.8975,0.441,-0.441,0.8975,50.7393,-8.2583)"
                 width="11"
                 height="76.783997"
                 id="rect4267" />
            </g>
          </g>
        </g>
      </g>
    </g>
  </g>
</svg>
